<svg width="54" height="54" viewBox="0 0 54 54" fill="none" xmlns="http://www.w3.org/2000/svg">
<path d="M21.2222 6.77778L27 1M15.4444 38.5556L38.5556 15.4444M27 53L32.7778 47.2222M40 47.2222C41.9155 47.2222 43.7525 46.4613 45.1069 45.1069C46.4613 43.7525 47.2222 41.9155 47.2222 40C47.2222 38.0845 46.4613 36.2475 45.1069 34.8931C43.7525 33.5387 41.9155 32.7778 40 32.7778C38.0845 32.7778 36.2475 33.5387 34.8931 34.8931C33.5387 36.2475 32.7778 38.0845 32.7778 40C32.7778 41.9155 33.5387 43.7525 34.8931 45.1069C36.2475 46.4613 38.0845 47.2222 40 47.2222ZM14 21.2222C15.9155 21.2222 17.7525 20.4613 19.1069 19.1069C20.4613 17.7525 21.2222 15.9155 21.2222 14C21.2222 12.0845 20.4613 10.2475 19.1069 8.89312C17.7525 7.53869 15.9155 6.77778 14 6.77778C12.0845 6.77778 10.2475 7.53869 8.89312 8.89312C7.53869 10.2475 6.77778 12.0845 6.77778 14C6.77778 15.9155 7.53869 17.7525 8.89312 19.1069C10.2475 20.4613 12.0845 21.2222 14 21.2222ZM8.22222 53C10.1377 53 11.9747 52.2391 13.3291 50.8847C14.6835 49.5302 15.4444 47.6932 15.4444 45.7778C15.4444 43.8623 14.6835 42.0253 13.3291 40.6709C11.9747 39.3165 10.1377 38.5556 8.22222 38.5556C6.30677 38.5556 4.46977 39.3165 3.11534 40.6709C1.76091 42.0253 1 43.8623 1 45.7778C1 47.6932 1.76091 49.5302 3.11534 50.8847C4.46977 52.2391 6.30677 53 8.22222 53ZM45.7778 15.4444C47.6932 15.4444 49.5302 14.6835 50.8847 13.3291C52.2391 11.9747 53 10.1377 53 8.22222C53 6.30677 52.2391 4.46977 50.8847 3.11534C49.5302 1.76091 47.6932 1 45.7778 1C43.8623 1 42.0253 1.76091 40.6709 3.11534C39.3165 4.46977 38.5556 6.30677 38.5556 8.22222C38.5556 10.1377 39.3165 11.9747 40.6709 13.3291C42.0253 14.6835 43.8623 15.4444 45.7778 15.4444Z" stroke="#63EAC1" stroke-width="2" stroke-linecap="round" stroke-linejoin="round"/>
</svg>
